<mxfile host="app.diagrams.net" modified="2021-12-27T13:33:37.193Z" agent="5.0 (Windows NT 10.0; Win64; x64) AppleWebKit/537.36 (KHTML, like Gecko) Chrome/96.0.4664.110 Safari/537.36" etag="Wq-pUGcUpcZwYrw80lv5" version="15.8.8" type="github">
  <diagram id="C5RBs43oDa-KdzZeNtuy" name="Page-1">
    <mxGraphModel dx="1146" dy="526" grid="1" gridSize="10" guides="1" tooltips="1" connect="1" arrows="1" fold="1" page="1" pageScale="1" pageWidth="827" pageHeight="1169" math="0" shadow="0">
      <root>
        <mxCell id="WIyWlLk6GJQsqaUBKTNV-0" />
        <mxCell id="WIyWlLk6GJQsqaUBKTNV-1" parent="WIyWlLk6GJQsqaUBKTNV-0" />
        <mxCell id="O3AAwsWnJnpyqAemV3e3-4" value="MemberController" style="swimlane;fontStyle=1;align=center;verticalAlign=top;childLayout=stackLayout;horizontal=1;startSize=26;horizontalStack=0;resizeParent=1;resizeParentMax=0;resizeLast=0;collapsible=1;marginBottom=0;" vertex="1" parent="WIyWlLk6GJQsqaUBKTNV-1">
          <mxGeometry x="84" y="30" width="660" height="140" as="geometry" />
        </mxCell>
        <mxCell id="O3AAwsWnJnpyqAemV3e3-5" value=" " style="text;strokeColor=none;fillColor=none;align=left;verticalAlign=top;spacingLeft=4;spacingRight=4;overflow=hidden;rotatable=0;points=[[0,0.5],[1,0.5]];portConstraint=eastwest;" vertex="1" parent="O3AAwsWnJnpyqAemV3e3-4">
          <mxGeometry y="26" width="660" height="26" as="geometry" />
        </mxCell>
        <mxCell id="O3AAwsWnJnpyqAemV3e3-6" value="" style="line;strokeWidth=1;fillColor=none;align=left;verticalAlign=middle;spacingTop=-1;spacingLeft=3;spacingRight=3;rotatable=0;labelPosition=right;points=[];portConstraint=eastwest;" vertex="1" parent="O3AAwsWnJnpyqAemV3e3-4">
          <mxGeometry y="52" width="660" height="8" as="geometry" />
        </mxCell>
        <mxCell id="O3AAwsWnJnpyqAemV3e3-61" value="+checkId(userId: String) : void" style="text;strokeColor=none;fillColor=none;align=left;verticalAlign=top;spacingLeft=4;spacingRight=4;overflow=hidden;rotatable=0;points=[[0,0.5],[1,0.5]];portConstraint=eastwest;" vertex="1" parent="O3AAwsWnJnpyqAemV3e3-4">
          <mxGeometry y="60" width="660" height="26" as="geometry" />
        </mxCell>
        <mxCell id="O3AAwsWnJnpyqAemV3e3-7" value="+insertMember(userNo:int , userId:String, userPwd:Sring, userName: Stirng, nickName : String, profilePath : String,&#xa;                            email : String, phone : String, grade : String, status : String, createDate : Date, modifyDate : Date,&#xa;                            memberRoleList : List&lt;AuthorityRole&gt;) : void&#xa;" style="text;strokeColor=none;fillColor=none;align=left;verticalAlign=top;spacingLeft=4;spacingRight=4;overflow=hidden;rotatable=0;points=[[0,0.5],[1,0.5]];portConstraint=eastwest;" vertex="1" parent="O3AAwsWnJnpyqAemV3e3-4">
          <mxGeometry y="86" width="660" height="54" as="geometry" />
        </mxCell>
        <mxCell id="O3AAwsWnJnpyqAemV3e3-8" value="MEMBER" style="swimlane;fontStyle=0;childLayout=stackLayout;horizontal=1;startSize=26;fillColor=none;horizontalStack=0;resizeParent=1;resizeParentMax=0;resizeLast=0;collapsible=1;marginBottom=0;" vertex="1" parent="WIyWlLk6GJQsqaUBKTNV-1">
          <mxGeometry x="860" y="330" width="230" height="362" as="geometry">
            <mxRectangle x="50" y="200" width="90" height="26" as="alternateBounds" />
          </mxGeometry>
        </mxCell>
        <mxCell id="O3AAwsWnJnpyqAemV3e3-9" value="- userNo : int&#xa;" style="text;strokeColor=none;fillColor=none;align=left;verticalAlign=top;spacingLeft=4;spacingRight=4;overflow=hidden;rotatable=0;points=[[0,0.5],[1,0.5]];portConstraint=eastwest;" vertex="1" parent="O3AAwsWnJnpyqAemV3e3-8">
          <mxGeometry y="26" width="230" height="26" as="geometry" />
        </mxCell>
        <mxCell id="O3AAwsWnJnpyqAemV3e3-10" value="- userId : String&#xa;" style="text;strokeColor=none;fillColor=none;align=left;verticalAlign=top;spacingLeft=4;spacingRight=4;overflow=hidden;rotatable=0;points=[[0,0.5],[1,0.5]];portConstraint=eastwest;" vertex="1" parent="O3AAwsWnJnpyqAemV3e3-8">
          <mxGeometry y="52" width="230" height="26" as="geometry" />
        </mxCell>
        <mxCell id="O3AAwsWnJnpyqAemV3e3-12" value="- userPwd : String&#xa;" style="text;strokeColor=none;fillColor=none;align=left;verticalAlign=top;spacingLeft=4;spacingRight=4;overflow=hidden;rotatable=0;points=[[0,0.5],[1,0.5]];portConstraint=eastwest;" vertex="1" parent="O3AAwsWnJnpyqAemV3e3-8">
          <mxGeometry y="78" width="230" height="26" as="geometry" />
        </mxCell>
        <mxCell id="O3AAwsWnJnpyqAemV3e3-13" value="- userName : String&#xa;" style="text;strokeColor=none;fillColor=none;align=left;verticalAlign=top;spacingLeft=4;spacingRight=4;overflow=hidden;rotatable=0;points=[[0,0.5],[1,0.5]];portConstraint=eastwest;" vertex="1" parent="O3AAwsWnJnpyqAemV3e3-8">
          <mxGeometry y="104" width="230" height="26" as="geometry" />
        </mxCell>
        <mxCell id="O3AAwsWnJnpyqAemV3e3-14" value="- nickName : String&#xa;" style="text;strokeColor=none;fillColor=none;align=left;verticalAlign=top;spacingLeft=4;spacingRight=4;overflow=hidden;rotatable=0;points=[[0,0.5],[1,0.5]];portConstraint=eastwest;" vertex="1" parent="O3AAwsWnJnpyqAemV3e3-8">
          <mxGeometry y="130" width="230" height="26" as="geometry" />
        </mxCell>
        <mxCell id="O3AAwsWnJnpyqAemV3e3-11" value="- profilePath : String&#xa;" style="text;strokeColor=none;fillColor=none;align=left;verticalAlign=top;spacingLeft=4;spacingRight=4;overflow=hidden;rotatable=0;points=[[0,0.5],[1,0.5]];portConstraint=eastwest;" vertex="1" parent="O3AAwsWnJnpyqAemV3e3-8">
          <mxGeometry y="156" width="230" height="24" as="geometry" />
        </mxCell>
        <mxCell id="O3AAwsWnJnpyqAemV3e3-16" value="- email : String&#xa;" style="text;strokeColor=none;fillColor=none;align=left;verticalAlign=top;spacingLeft=4;spacingRight=4;overflow=hidden;rotatable=0;points=[[0,0.5],[1,0.5]];portConstraint=eastwest;" vertex="1" parent="O3AAwsWnJnpyqAemV3e3-8">
          <mxGeometry y="180" width="230" height="26" as="geometry" />
        </mxCell>
        <mxCell id="O3AAwsWnJnpyqAemV3e3-18" value="- phone : String&#xa;" style="text;strokeColor=none;fillColor=none;align=left;verticalAlign=top;spacingLeft=4;spacingRight=4;overflow=hidden;rotatable=0;points=[[0,0.5],[1,0.5]];portConstraint=eastwest;" vertex="1" parent="O3AAwsWnJnpyqAemV3e3-8">
          <mxGeometry y="206" width="230" height="26" as="geometry" />
        </mxCell>
        <mxCell id="O3AAwsWnJnpyqAemV3e3-19" value="- grade : String&#xa;" style="text;strokeColor=none;fillColor=none;align=left;verticalAlign=top;spacingLeft=4;spacingRight=4;overflow=hidden;rotatable=0;points=[[0,0.5],[1,0.5]];portConstraint=eastwest;" vertex="1" parent="O3AAwsWnJnpyqAemV3e3-8">
          <mxGeometry y="232" width="230" height="26" as="geometry" />
        </mxCell>
        <mxCell id="O3AAwsWnJnpyqAemV3e3-22" value="- status : String" style="text;strokeColor=none;fillColor=none;align=left;verticalAlign=top;spacingLeft=4;spacingRight=4;overflow=hidden;rotatable=0;points=[[0,0.5],[1,0.5]];portConstraint=eastwest;" vertex="1" parent="O3AAwsWnJnpyqAemV3e3-8">
          <mxGeometry y="258" width="230" height="26" as="geometry" />
        </mxCell>
        <mxCell id="O3AAwsWnJnpyqAemV3e3-21" value="- createDate : Date&#xa;" style="text;strokeColor=none;fillColor=none;align=left;verticalAlign=top;spacingLeft=4;spacingRight=4;overflow=hidden;rotatable=0;points=[[0,0.5],[1,0.5]];portConstraint=eastwest;" vertex="1" parent="O3AAwsWnJnpyqAemV3e3-8">
          <mxGeometry y="284" width="230" height="26" as="geometry" />
        </mxCell>
        <mxCell id="O3AAwsWnJnpyqAemV3e3-20" value="- modifyDate : Date&#xa;" style="text;strokeColor=none;fillColor=none;align=left;verticalAlign=top;spacingLeft=4;spacingRight=4;overflow=hidden;rotatable=0;points=[[0,0.5],[1,0.5]];portConstraint=eastwest;" vertex="1" parent="O3AAwsWnJnpyqAemV3e3-8">
          <mxGeometry y="310" width="230" height="26" as="geometry" />
        </mxCell>
        <mxCell id="O3AAwsWnJnpyqAemV3e3-57" value="- memberRoleList : List&lt;AuthorityRole&gt;&#xa;&#xa;" style="text;strokeColor=none;fillColor=none;align=left;verticalAlign=top;spacingLeft=4;spacingRight=4;overflow=hidden;rotatable=0;points=[[0,0.5],[1,0.5]];portConstraint=eastwest;" vertex="1" parent="O3AAwsWnJnpyqAemV3e3-8">
          <mxGeometry y="336" width="230" height="26" as="geometry" />
        </mxCell>
        <mxCell id="O3AAwsWnJnpyqAemV3e3-23" value="BOARD" style="swimlane;fontStyle=0;childLayout=stackLayout;horizontal=1;startSize=26;fillColor=none;horizontalStack=0;resizeParent=1;resizeParentMax=0;resizeLast=0;collapsible=1;marginBottom=0;" vertex="1" parent="WIyWlLk6GJQsqaUBKTNV-1">
          <mxGeometry x="230" y="320" width="140" height="208" as="geometry" />
        </mxCell>
        <mxCell id="O3AAwsWnJnpyqAemV3e3-24" value="- bid : int&#xa;" style="text;strokeColor=none;fillColor=none;align=left;verticalAlign=top;spacingLeft=4;spacingRight=4;overflow=hidden;rotatable=0;points=[[0,0.5],[1,0.5]];portConstraint=eastwest;" vertex="1" parent="O3AAwsWnJnpyqAemV3e3-23">
          <mxGeometry y="26" width="140" height="26" as="geometry" />
        </mxCell>
        <mxCell id="O3AAwsWnJnpyqAemV3e3-25" value="- btitle : String&#xa;" style="text;strokeColor=none;fillColor=none;align=left;verticalAlign=top;spacingLeft=4;spacingRight=4;overflow=hidden;rotatable=0;points=[[0,0.5],[1,0.5]];portConstraint=eastwest;" vertex="1" parent="O3AAwsWnJnpyqAemV3e3-23">
          <mxGeometry y="52" width="140" height="26" as="geometry" />
        </mxCell>
        <mxCell id="O3AAwsWnJnpyqAemV3e3-26" value="- bcontent : String&#xa;" style="text;strokeColor=none;fillColor=none;align=left;verticalAlign=top;spacingLeft=4;spacingRight=4;overflow=hidden;rotatable=0;points=[[0,0.5],[1,0.5]];portConstraint=eastwest;" vertex="1" parent="O3AAwsWnJnpyqAemV3e3-23">
          <mxGeometry y="78" width="140" height="26" as="geometry" />
        </mxCell>
        <mxCell id="O3AAwsWnJnpyqAemV3e3-27" value="- modifyDate : Date&#xa;" style="text;strokeColor=none;fillColor=none;align=left;verticalAlign=top;spacingLeft=4;spacingRight=4;overflow=hidden;rotatable=0;points=[[0,0.5],[1,0.5]];portConstraint=eastwest;" vertex="1" parent="O3AAwsWnJnpyqAemV3e3-23">
          <mxGeometry y="104" width="140" height="26" as="geometry" />
        </mxCell>
        <mxCell id="O3AAwsWnJnpyqAemV3e3-28" value="- createDate : Date&#xa;" style="text;strokeColor=none;fillColor=none;align=left;verticalAlign=top;spacingLeft=4;spacingRight=4;overflow=hidden;rotatable=0;points=[[0,0.5],[1,0.5]];portConstraint=eastwest;" vertex="1" parent="O3AAwsWnJnpyqAemV3e3-23">
          <mxGeometry y="130" width="140" height="26" as="geometry" />
        </mxCell>
        <mxCell id="O3AAwsWnJnpyqAemV3e3-29" value="- status : String" style="text;strokeColor=none;fillColor=none;align=left;verticalAlign=top;spacingLeft=4;spacingRight=4;overflow=hidden;rotatable=0;points=[[0,0.5],[1,0.5]];portConstraint=eastwest;" vertex="1" parent="O3AAwsWnJnpyqAemV3e3-23">
          <mxGeometry y="156" width="140" height="26" as="geometry" />
        </mxCell>
        <mxCell id="O3AAwsWnJnpyqAemV3e3-30" value="- bwriter : int" style="text;strokeColor=none;fillColor=none;align=left;verticalAlign=top;spacingLeft=4;spacingRight=4;overflow=hidden;rotatable=0;points=[[0,0.5],[1,0.5]];portConstraint=eastwest;" vertex="1" parent="O3AAwsWnJnpyqAemV3e3-23">
          <mxGeometry y="182" width="140" height="26" as="geometry" />
        </mxCell>
        <mxCell id="O3AAwsWnJnpyqAemV3e3-35" value="COMMENT" style="swimlane;fontStyle=0;childLayout=stackLayout;horizontal=1;startSize=26;fillColor=none;horizontalStack=0;resizeParent=1;resizeParentMax=0;resizeLast=0;collapsible=1;marginBottom=0;" vertex="1" parent="WIyWlLk6GJQsqaUBKTNV-1">
          <mxGeometry x="400" y="310" width="140" height="234" as="geometry" />
        </mxCell>
        <mxCell id="O3AAwsWnJnpyqAemV3e3-36" value="- cid : int" style="text;strokeColor=none;fillColor=none;align=left;verticalAlign=top;spacingLeft=4;spacingRight=4;overflow=hidden;rotatable=0;points=[[0,0.5],[1,0.5]];portConstraint=eastwest;" vertex="1" parent="O3AAwsWnJnpyqAemV3e3-35">
          <mxGeometry y="26" width="140" height="26" as="geometry" />
        </mxCell>
        <mxCell id="O3AAwsWnJnpyqAemV3e3-37" value="- bid : int" style="text;strokeColor=none;fillColor=none;align=left;verticalAlign=top;spacingLeft=4;spacingRight=4;overflow=hidden;rotatable=0;points=[[0,0.5],[1,0.5]];portConstraint=eastwest;" vertex="1" parent="O3AAwsWnJnpyqAemV3e3-35">
          <mxGeometry y="52" width="140" height="26" as="geometry" />
        </mxCell>
        <mxCell id="O3AAwsWnJnpyqAemV3e3-38" value="- ccontent : String" style="text;strokeColor=none;fillColor=none;align=left;verticalAlign=top;spacingLeft=4;spacingRight=4;overflow=hidden;rotatable=0;points=[[0,0.5],[1,0.5]];portConstraint=eastwest;" vertex="1" parent="O3AAwsWnJnpyqAemV3e3-35">
          <mxGeometry y="78" width="140" height="26" as="geometry" />
        </mxCell>
        <mxCell id="O3AAwsWnJnpyqAemV3e3-39" value="- createDate : Date&#xa;" style="text;strokeColor=none;fillColor=none;align=left;verticalAlign=top;spacingLeft=4;spacingRight=4;overflow=hidden;rotatable=0;points=[[0,0.5],[1,0.5]];portConstraint=eastwest;" vertex="1" parent="O3AAwsWnJnpyqAemV3e3-35">
          <mxGeometry y="104" width="140" height="26" as="geometry" />
        </mxCell>
        <mxCell id="O3AAwsWnJnpyqAemV3e3-40" value="- modifyDate : Date" style="text;strokeColor=none;fillColor=none;align=left;verticalAlign=top;spacingLeft=4;spacingRight=4;overflow=hidden;rotatable=0;points=[[0,0.5],[1,0.5]];portConstraint=eastwest;" vertex="1" parent="O3AAwsWnJnpyqAemV3e3-35">
          <mxGeometry y="130" width="140" height="26" as="geometry" />
        </mxCell>
        <mxCell id="O3AAwsWnJnpyqAemV3e3-41" value="- status : String" style="text;strokeColor=none;fillColor=none;align=left;verticalAlign=top;spacingLeft=4;spacingRight=4;overflow=hidden;rotatable=0;points=[[0,0.5],[1,0.5]];portConstraint=eastwest;" vertex="1" parent="O3AAwsWnJnpyqAemV3e3-35">
          <mxGeometry y="156" width="140" height="26" as="geometry" />
        </mxCell>
        <mxCell id="O3AAwsWnJnpyqAemV3e3-43" value="- refCid : int" style="text;strokeColor=none;fillColor=none;align=left;verticalAlign=top;spacingLeft=4;spacingRight=4;overflow=hidden;rotatable=0;points=[[0,0.5],[1,0.5]];portConstraint=eastwest;" vertex="1" parent="O3AAwsWnJnpyqAemV3e3-35">
          <mxGeometry y="182" width="140" height="26" as="geometry" />
        </mxCell>
        <mxCell id="O3AAwsWnJnpyqAemV3e3-42" value="- cwriter : int" style="text;strokeColor=none;fillColor=none;align=left;verticalAlign=top;spacingLeft=4;spacingRight=4;overflow=hidden;rotatable=0;points=[[0,0.5],[1,0.5]];portConstraint=eastwest;" vertex="1" parent="O3AAwsWnJnpyqAemV3e3-35">
          <mxGeometry y="208" width="140" height="26" as="geometry" />
        </mxCell>
        <mxCell id="O3AAwsWnJnpyqAemV3e3-44" value="AUTHORITYROLE" style="swimlane;fontStyle=0;childLayout=stackLayout;horizontal=1;startSize=26;fillColor=none;horizontalStack=0;resizeParent=1;resizeParentMax=0;resizeLast=0;collapsible=1;marginBottom=0;" vertex="1" parent="WIyWlLk6GJQsqaUBKTNV-1">
          <mxGeometry x="530" y="633" width="140" height="78" as="geometry" />
        </mxCell>
        <mxCell id="O3AAwsWnJnpyqAemV3e3-45" value="- userNo : int" style="text;strokeColor=none;fillColor=none;align=left;verticalAlign=top;spacingLeft=4;spacingRight=4;overflow=hidden;rotatable=0;points=[[0,0.5],[1,0.5]];portConstraint=eastwest;" vertex="1" parent="O3AAwsWnJnpyqAemV3e3-44">
          <mxGeometry y="26" width="140" height="26" as="geometry" />
        </mxCell>
        <mxCell id="O3AAwsWnJnpyqAemV3e3-46" value="- authorityCode : int" style="text;strokeColor=none;fillColor=none;align=left;verticalAlign=top;spacingLeft=4;spacingRight=4;overflow=hidden;rotatable=0;points=[[0,0.5],[1,0.5]];portConstraint=eastwest;" vertex="1" parent="O3AAwsWnJnpyqAemV3e3-44">
          <mxGeometry y="52" width="140" height="26" as="geometry" />
        </mxCell>
        <mxCell id="O3AAwsWnJnpyqAemV3e3-52" value="AUTHORITY" style="swimlane;fontStyle=0;childLayout=stackLayout;horizontal=1;startSize=26;fillColor=none;horizontalStack=0;resizeParent=1;resizeParentMax=0;resizeLast=0;collapsible=1;marginBottom=0;" vertex="1" parent="WIyWlLk6GJQsqaUBKTNV-1">
          <mxGeometry x="230" y="620" width="140" height="104" as="geometry" />
        </mxCell>
        <mxCell id="O3AAwsWnJnpyqAemV3e3-53" value="- authorityCode : int" style="text;strokeColor=none;fillColor=none;align=left;verticalAlign=top;spacingLeft=4;spacingRight=4;overflow=hidden;rotatable=0;points=[[0,0.5],[1,0.5]];portConstraint=eastwest;" vertex="1" parent="O3AAwsWnJnpyqAemV3e3-52">
          <mxGeometry y="26" width="140" height="26" as="geometry" />
        </mxCell>
        <mxCell id="O3AAwsWnJnpyqAemV3e3-56" value="- authorityName : String" style="text;strokeColor=none;fillColor=none;align=left;verticalAlign=top;spacingLeft=4;spacingRight=4;overflow=hidden;rotatable=0;points=[[0,0.5],[1,0.5]];portConstraint=eastwest;" vertex="1" parent="O3AAwsWnJnpyqAemV3e3-52">
          <mxGeometry y="52" width="140" height="26" as="geometry" />
        </mxCell>
        <mxCell id="O3AAwsWnJnpyqAemV3e3-54" value="- authorityDesc : String" style="text;strokeColor=none;fillColor=none;align=left;verticalAlign=top;spacingLeft=4;spacingRight=4;overflow=hidden;rotatable=0;points=[[0,0.5],[1,0.5]];portConstraint=eastwest;" vertex="1" parent="O3AAwsWnJnpyqAemV3e3-52">
          <mxGeometry y="78" width="140" height="26" as="geometry" />
        </mxCell>
        <mxCell id="O3AAwsWnJnpyqAemV3e3-60" value="Use" style="endArrow=open;endSize=12;dashed=1;html=1;rounded=0;exitX=0.494;exitY=1.154;exitDx=0;exitDy=0;exitPerimeter=0;entryX=0;entryY=0.5;entryDx=0;entryDy=0;" edge="1" parent="WIyWlLk6GJQsqaUBKTNV-1" source="O3AAwsWnJnpyqAemV3e3-7" target="O3AAwsWnJnpyqAemV3e3-10">
          <mxGeometry width="160" relative="1" as="geometry">
            <mxPoint x="340" y="390" as="sourcePoint" />
            <mxPoint x="500" y="390" as="targetPoint" />
          </mxGeometry>
        </mxCell>
        <mxCell id="O3AAwsWnJnpyqAemV3e3-65" value="MemberService" style="swimlane;fontStyle=1;align=center;verticalAlign=top;childLayout=stackLayout;horizontal=1;startSize=26;horizontalStack=0;resizeParent=1;resizeParentMax=0;resizeLast=0;collapsible=1;marginBottom=0;" vertex="1" parent="WIyWlLk6GJQsqaUBKTNV-1">
          <mxGeometry x="900" y="30" width="660" height="140" as="geometry" />
        </mxCell>
        <mxCell id="O3AAwsWnJnpyqAemV3e3-66" value=" " style="text;strokeColor=none;fillColor=none;align=left;verticalAlign=top;spacingLeft=4;spacingRight=4;overflow=hidden;rotatable=0;points=[[0,0.5],[1,0.5]];portConstraint=eastwest;" vertex="1" parent="O3AAwsWnJnpyqAemV3e3-65">
          <mxGeometry y="26" width="660" height="26" as="geometry" />
        </mxCell>
        <mxCell id="O3AAwsWnJnpyqAemV3e3-67" value="" style="line;strokeWidth=1;fillColor=none;align=left;verticalAlign=middle;spacingTop=-1;spacingLeft=3;spacingRight=3;rotatable=0;labelPosition=right;points=[];portConstraint=eastwest;" vertex="1" parent="O3AAwsWnJnpyqAemV3e3-65">
          <mxGeometry y="52" width="660" height="8" as="geometry" />
        </mxCell>
        <mxCell id="O3AAwsWnJnpyqAemV3e3-68" value="+checkId(userId: String) : void" style="text;strokeColor=none;fillColor=none;align=left;verticalAlign=top;spacingLeft=4;spacingRight=4;overflow=hidden;rotatable=0;points=[[0,0.5],[1,0.5]];portConstraint=eastwest;" vertex="1" parent="O3AAwsWnJnpyqAemV3e3-65">
          <mxGeometry y="60" width="660" height="26" as="geometry" />
        </mxCell>
        <mxCell id="O3AAwsWnJnpyqAemV3e3-69" value="+insertMember(userNo:int , userId:String, userPwd:Sring, userName: Stirng, nickName : String, profilePath : String,&#xa;                            email : String, phone : String, grade : String, status : String, createDate : Date, modifyDate : Date,&#xa;                            memberRoleList : List&lt;AuthorityRole&gt;) : void&#xa;" style="text;strokeColor=none;fillColor=none;align=left;verticalAlign=top;spacingLeft=4;spacingRight=4;overflow=hidden;rotatable=0;points=[[0,0.5],[1,0.5]];portConstraint=eastwest;" vertex="1" parent="O3AAwsWnJnpyqAemV3e3-65">
          <mxGeometry y="86" width="660" height="54" as="geometry" />
        </mxCell>
        <mxCell id="O3AAwsWnJnpyqAemV3e3-70" value="" style="endArrow=open;endFill=1;endSize=12;html=1;rounded=0;entryX=0;entryY=0.5;entryDx=0;entryDy=0;exitX=1.009;exitY=0.176;exitDx=0;exitDy=0;exitPerimeter=0;" edge="1" parent="WIyWlLk6GJQsqaUBKTNV-1" source="O3AAwsWnJnpyqAemV3e3-61" target="O3AAwsWnJnpyqAemV3e3-68">
          <mxGeometry width="160" relative="1" as="geometry">
            <mxPoint x="820" y="103" as="sourcePoint" />
            <mxPoint x="1120" y="110" as="targetPoint" />
          </mxGeometry>
        </mxCell>
        <mxCell id="O3AAwsWnJnpyqAemV3e3-71" value="Use" style="endArrow=open;endSize=12;dashed=1;html=1;rounded=0;entryX=0.75;entryY=0;entryDx=0;entryDy=0;" edge="1" parent="WIyWlLk6GJQsqaUBKTNV-1" source="O3AAwsWnJnpyqAemV3e3-69" target="O3AAwsWnJnpyqAemV3e3-8">
          <mxGeometry width="160" relative="1" as="geometry">
            <mxPoint x="1050" y="290" as="sourcePoint" />
            <mxPoint x="1210" y="290" as="targetPoint" />
          </mxGeometry>
        </mxCell>
        <mxCell id="O3AAwsWnJnpyqAemV3e3-72" value="MemberDao" style="swimlane;fontStyle=1;align=center;verticalAlign=top;childLayout=stackLayout;horizontal=1;startSize=26;horizontalStack=0;resizeParent=1;resizeParentMax=0;resizeLast=0;collapsible=1;marginBottom=0;" vertex="1" parent="WIyWlLk6GJQsqaUBKTNV-1">
          <mxGeometry x="1710" y="30" width="660" height="140" as="geometry" />
        </mxCell>
        <mxCell id="O3AAwsWnJnpyqAemV3e3-73" value=" " style="text;strokeColor=none;fillColor=none;align=left;verticalAlign=top;spacingLeft=4;spacingRight=4;overflow=hidden;rotatable=0;points=[[0,0.5],[1,0.5]];portConstraint=eastwest;" vertex="1" parent="O3AAwsWnJnpyqAemV3e3-72">
          <mxGeometry y="26" width="660" height="26" as="geometry" />
        </mxCell>
        <mxCell id="O3AAwsWnJnpyqAemV3e3-74" value="" style="line;strokeWidth=1;fillColor=none;align=left;verticalAlign=middle;spacingTop=-1;spacingLeft=3;spacingRight=3;rotatable=0;labelPosition=right;points=[];portConstraint=eastwest;" vertex="1" parent="O3AAwsWnJnpyqAemV3e3-72">
          <mxGeometry y="52" width="660" height="8" as="geometry" />
        </mxCell>
        <mxCell id="O3AAwsWnJnpyqAemV3e3-75" value="+checkId(userId: String) : void" style="text;strokeColor=none;fillColor=none;align=left;verticalAlign=top;spacingLeft=4;spacingRight=4;overflow=hidden;rotatable=0;points=[[0,0.5],[1,0.5]];portConstraint=eastwest;" vertex="1" parent="O3AAwsWnJnpyqAemV3e3-72">
          <mxGeometry y="60" width="660" height="26" as="geometry" />
        </mxCell>
        <mxCell id="O3AAwsWnJnpyqAemV3e3-76" value="+insertMember(userNo:int , userId:String, userPwd:Sring, userName: Stirng, nickName : String, profilePath : String,&#xa;                            email : String, phone : String, grade : String, status : String, createDate : Date, modifyDate : Date,&#xa;                            memberRoleList : List&lt;AuthorityRole&gt;) : void&#xa;" style="text;strokeColor=none;fillColor=none;align=left;verticalAlign=top;spacingLeft=4;spacingRight=4;overflow=hidden;rotatable=0;points=[[0,0.5],[1,0.5]];portConstraint=eastwest;" vertex="1" parent="O3AAwsWnJnpyqAemV3e3-72">
          <mxGeometry y="86" width="660" height="54" as="geometry" />
        </mxCell>
        <mxCell id="O3AAwsWnJnpyqAemV3e3-77" value="" style="endArrow=open;endFill=1;endSize=12;html=1;rounded=0;exitX=1;exitY=0.5;exitDx=0;exitDy=0;entryX=0;entryY=0.5;entryDx=0;entryDy=0;" edge="1" parent="WIyWlLk6GJQsqaUBKTNV-1" source="O3AAwsWnJnpyqAemV3e3-68" target="O3AAwsWnJnpyqAemV3e3-75">
          <mxGeometry width="160" relative="1" as="geometry">
            <mxPoint x="1800" y="40" as="sourcePoint" />
            <mxPoint x="1960" y="40" as="targetPoint" />
          </mxGeometry>
        </mxCell>
        <mxCell id="O3AAwsWnJnpyqAemV3e3-78" value="Use" style="endArrow=open;endSize=12;dashed=1;html=1;rounded=0;entryX=1;entryY=0.5;entryDx=0;entryDy=0;exitX=0.227;exitY=1.111;exitDx=0;exitDy=0;exitPerimeter=0;" edge="1" parent="WIyWlLk6GJQsqaUBKTNV-1" source="O3AAwsWnJnpyqAemV3e3-76" target="O3AAwsWnJnpyqAemV3e3-12">
          <mxGeometry width="160" relative="1" as="geometry">
            <mxPoint x="1233.9371257485031" y="180" as="sourcePoint" />
            <mxPoint x="1202.5" y="320" as="targetPoint" />
          </mxGeometry>
        </mxCell>
        <mxCell id="O3AAwsWnJnpyqAemV3e3-79" value="- memberService" style="text;align=center;fontStyle=1;verticalAlign=middle;spacingLeft=3;spacingRight=3;strokeColor=none;rotatable=0;points=[[0,0.5],[1,0.5]];portConstraint=eastwest;" vertex="1" parent="WIyWlLk6GJQsqaUBKTNV-1">
          <mxGeometry x="810" y="70" width="80" height="26" as="geometry" />
        </mxCell>
        <mxCell id="O3AAwsWnJnpyqAemV3e3-80" value="- memberDao" style="text;align=center;fontStyle=1;verticalAlign=middle;spacingLeft=3;spacingRight=3;strokeColor=none;rotatable=0;points=[[0,0.5],[1,0.5]];portConstraint=eastwest;" vertex="1" parent="WIyWlLk6GJQsqaUBKTNV-1">
          <mxGeometry x="1630" y="70" width="80" height="26" as="geometry" />
        </mxCell>
      </root>
    </mxGraphModel>
  </diagram>
</mxfile>
